<svg width="112" height="100" viewBox="0 0 112 100" fill="none" xmlns="http://www.w3.org/2000/svg">
<path d="M58.2401 49.307L58.5933 50.7835C58.5726 50.6968 58.5499 50.6121 58.5231 50.5254L58.1699 49.0488C58.1968 49.1356 58.2195 49.2202 58.2401 49.307Z" fill="black"/>
<path d="M58.2401 49.307L58.5933 50.7835C58.5726 50.6968 58.5499 50.6121 58.5231 50.5254L58.1699 49.0488C58.1968 49.1356 58.2195 49.2202 58.2401 49.307Z" fill="black"/>
<path d="M60.9867 48.3112C60.3362 46.0727 58.5169 44.4661 55.5824 43.5347C52.6727 42.6096 49.443 42.5993 45.9819 43.4996C43.5513 44.1336 41.4512 45.0918 39.7413 46.3515C38.9938 46.9029 38.3061 47.5203 37.6969 48.1915C35.6752 50.4176 34.9917 52.685 35.6649 54.9298C36.3133 57.1683 38.1326 58.7749 41.0692 59.7083C42.5436 60.175 44.0986 60.4105 45.7238 60.4105C47.3098 60.4105 48.9618 60.1874 50.6676 59.7434C53.0899 59.1219 55.1859 58.1678 56.8917 56.9102C57.6371 56.3608 58.3248 55.7434 58.9319 55.0722C60.9516 52.8461 61.6434 50.5725 60.9867 48.3112ZM50.3991 44.97C51.6505 44.97 52.8441 45.1476 53.9717 45.5048C56.1668 46.2028 57.5277 47.4088 58.0171 49.0918V49.0939C58.5127 50.7398 57.9799 52.4372 56.4332 54.1389C55.9541 54.6654 55.4151 55.1507 54.8328 55.5803C53.5215 56.5467 51.919 57.2819 50.0728 57.761C47.3655 58.4445 44.8771 58.4362 42.6737 57.7362C40.4579 57.032 39.0784 55.8281 38.5766 54.1616C38.0934 52.5013 38.6262 50.8038 40.1626 49.1145C40.6479 48.5818 41.191 48.0924 41.7775 47.6587C43.0908 46.6902 44.6871 45.9612 46.5209 45.4924C47.8673 45.1434 49.1621 44.97 50.3991 44.97Z" fill="black"/>
<path d="M15.1672 35C17.734 35 20.082 35.7228 22.2152 37.1683C24.3113 38.5788 25.8559 40.4662 26.8513 42.8349H24.6293C23.7083 41.0465 22.4073 39.6278 20.7263 38.5787C19.0454 37.5318 17.193 37.0072 15.1692 37.0072C12.2596 37.0072 9.76497 38.0377 7.68752 40.0987C5.64517 42.1947 4.62502 44.6893 4.62502 47.5804C4.62502 50.4549 5.64517 52.9392 7.68752 55.0352C9.74845 57.0962 12.241 58.1266 15.1692 58.1266C17.8807 58.1266 20.1935 57.2593 22.1099 55.5247C24.0614 53.79 25.2178 51.6031 25.5792 48.964C25.6329 48.7285 25.5255 48.6108 25.2529 48.6108H15.1961V46.5768H27.7744V47.5804C27.7744 51.0497 26.5354 54.0234 24.0593 56.4994C21.6019 58.9568 18.6365 60.1855 15.1672 60.1855C11.6979 60.1855 8.73242 58.9568 6.275 56.4994C3.81757 54.0234 2.58887 51.0497 2.58887 47.5804C2.58887 44.1111 3.81757 41.1456 6.275 38.6882C8.73242 36.2308 11.6958 35 15.1672 35Z" fill="black"/>
<path d="M38.075 43.0785H36.7472C35.5536 43.0785 34.5334 43.5039 33.6847 44.3527C32.8525 45.1849 32.4374 46.1968 32.4374 47.3883V59.9129H30.4033V47.3883C30.4033 45.6536 31.0166 44.1709 32.2474 42.9422C33.5112 41.6784 35.0125 41.0444 36.7472 41.0444H38.075V43.0785Z" fill="black"/>
<path d="M72.8814 41.8043C73.3337 41.4243 73.8665 41.2344 74.4818 41.2344C75.0952 41.2344 75.6341 41.4243 76.0947 41.8043C76.5552 42.1843 76.8319 42.6717 76.9207 43.2685L79.2253 57.0135C79.3513 57.7363 79.7953 58.0977 80.5531 58.0977C81.2945 58.0977 81.7199 57.7363 81.8273 57.0135L84.485 41.4533H86.5459L83.8614 57.3398C83.7354 58.1534 83.3554 58.8266 82.7235 59.3594C82.0916 59.8922 81.3688 60.1586 80.5552 60.1586C79.7416 60.1586 79.0188 59.8922 78.3869 59.3594C77.755 58.8266 77.375 58.1534 77.249 57.3398L74.9176 43.6216C74.8804 43.3696 74.7358 43.2416 74.4839 43.2416C74.2485 43.2416 74.1039 43.3676 74.0503 43.6216L71.7456 57.3398C71.6197 58.1534 71.248 58.8266 70.6346 59.3594C70.0192 59.8922 69.2965 60.1586 68.4663 60.1586C67.6527 60.1586 66.9299 59.8922 66.298 59.3594C65.6661 58.8266 65.2861 58.1534 65.1602 57.3398L62.4487 41.4533H64.5365L67.1653 57.0135C67.2913 57.7363 67.725 58.0977 68.4663 58.0977C69.2263 58.0977 69.6599 57.7363 69.7673 57.0135L72.0451 43.2685C72.1504 42.6737 72.4312 42.1843 72.8814 41.8043Z" fill="black"/>
<path d="M91.2089 35.2168V41.0444C91.2089 41.3149 91.3452 41.4512 91.6157 41.4512H94.6245V43.4853H91.6157C91.3452 43.4853 91.2089 43.6113 91.2089 43.8653V55.062C91.2089 55.8385 91.4897 56.5035 92.0494 57.0548C92.609 57.6062 93.2781 57.8809 94.0545 57.8809H94.6245V59.9149H94.0545C92.6813 59.9149 91.5248 59.4462 90.5852 58.5045C89.6456 57.5463 89.1748 56.4002 89.1748 55.062V35.2168H91.2089Z" fill="black"/>
<path d="M99.2874 35.2168V42.9711C99.2874 43.1879 99.3865 43.2251 99.5848 43.0805C100.995 41.7259 102.684 41.0465 104.655 41.0465C106.643 41.0465 108.37 41.7775 109.832 43.2416C111.277 44.6872 112 46.4136 112 48.4187V59.9129H109.995V48.4187C109.995 46.9546 109.47 45.699 108.423 44.65C107.374 43.603 106.119 43.0785 104.655 43.0785C103.172 43.0785 101.908 43.603 100.859 44.65C99.8099 45.6805 99.2874 46.936 99.2874 48.4187V59.9129H97.2822V35.2168H99.2874Z" fill="black"/>
<path d="M42.7131 65.0345L43.0291 62.9385L43.1902 62.9633L42.8742 65.0593L42.7131 65.0345Z" fill="black"/>
<path d="M44.0099 65.0695C44.1132 65.0799 44.1999 65.0633 44.2742 65.022C44.3486 64.9807 44.3981 64.9167 44.427 64.832L44.6067 64.8486C44.5633 64.9828 44.4869 65.0819 44.3775 65.148C44.268 65.212 44.1421 65.2389 43.9975 65.2244C43.7993 65.2058 43.6526 65.1232 43.5535 64.9807C43.4544 64.8362 43.4172 64.6503 43.4379 64.419C43.4606 64.1857 43.5349 64.0102 43.663 63.8904C43.791 63.7706 43.948 63.7211 44.1338 63.7396C44.3114 63.7562 44.4477 63.8284 44.5406 63.9523C44.6356 64.0762 44.6728 64.2352 44.6542 64.4232C44.6501 64.4562 44.6418 64.5078 44.6294 64.5739L43.6072 64.4748C43.5907 64.6565 43.6196 64.799 43.6919 64.9002C43.7642 64.9993 43.8695 65.0551 44.0099 65.0695ZM44.109 63.8945C43.9769 63.8821 43.8695 63.9131 43.7869 63.9874C43.7043 64.0618 43.6506 64.1712 43.6258 64.3158L44.4849 64.4004V64.3922C44.4993 64.2414 44.4725 64.1237 44.4023 64.0411C44.3341 63.9544 44.235 63.9069 44.109 63.8945Z" fill="black"/>
<path d="M45.5359 65.3172C45.2943 65.3089 45.1786 65.1664 45.189 64.8939L45.2241 63.9956L44.9143 63.9832L44.9205 63.8324L45.0568 63.8386C45.1249 63.8407 45.1704 63.8303 45.1972 63.8035C45.222 63.7787 45.2364 63.7333 45.2385 63.6693L45.2488 63.4111L45.4078 63.4173L45.3913 63.851L45.7506 63.8655L45.7444 64.0162L45.3851 64.0018L45.3521 64.8856C45.348 64.993 45.3645 65.0673 45.4037 65.1066C45.443 65.1458 45.5028 65.1685 45.5834 65.1706C45.6247 65.1726 45.6639 65.1706 45.7011 65.1644L45.6969 65.2965C45.6433 65.3131 45.5916 65.3193 45.5359 65.3172Z" fill="black"/>
<path d="M45.9944 63.7993V63.7084C46.046 63.7105 46.0873 63.6961 46.1141 63.6651C46.1431 63.6341 46.1534 63.5845 46.1451 63.5164H45.9944V63.25H46.2628V63.5061C46.2628 63.5721 46.2546 63.6258 46.238 63.6692C46.2215 63.7105 46.1968 63.7415 46.1658 63.758C46.1348 63.7745 46.1079 63.7869 46.0811 63.7931C46.0584 63.7952 46.0295 63.7993 45.9944 63.7993Z" fill="black"/>
<path d="M46.3949 64.8878C46.3991 64.9808 46.4362 65.053 46.5044 65.1026C46.5725 65.1522 46.6654 65.1749 46.7811 65.1707C46.8926 65.1666 46.9814 65.1418 47.0413 65.0923C47.1032 65.0427 47.1322 64.9808 47.1301 64.9002C47.128 64.8589 47.1198 64.8218 47.1012 64.7928C47.0826 64.7619 47.0599 64.7392 47.0268 64.7226C46.9959 64.7061 46.9711 64.6958 46.9525 64.6875C46.9339 64.6813 46.9112 64.6731 46.8802 64.6669L46.6324 64.607C46.5911 64.5967 46.5622 64.5905 46.5436 64.5863C46.525 64.5822 46.494 64.5698 46.4466 64.5492C46.3991 64.5285 46.3639 64.5079 46.3412 64.4852C46.3165 64.4624 46.2937 64.4294 46.271 64.384C46.2483 64.3406 46.2359 64.291 46.2338 64.2373C46.2297 64.1176 46.2731 64.0185 46.3619 63.9462C46.4507 63.8718 46.5663 63.8326 46.713 63.8285C46.8658 63.8243 46.9876 63.8594 47.0805 63.9338C47.1735 64.0081 47.221 64.1072 47.2251 64.2312L47.0619 64.2353C47.0557 64.1486 47.0227 64.0845 46.9608 64.0412C46.8988 63.9978 46.8162 63.9771 46.715 63.9813C46.6159 63.9833 46.5374 64.0081 46.4837 64.0536C46.43 64.099 46.4032 64.1568 46.4053 64.2312C46.4073 64.3014 46.43 64.3509 46.4775 64.3798C46.523 64.4087 46.5973 64.4356 46.7026 64.4583L46.9463 64.5161C47.1755 64.5678 47.2953 64.6896 47.2994 64.8816C47.3036 65.0097 47.2581 65.1129 47.1631 65.1955C47.0681 65.2761 46.9422 65.3194 46.7852 65.3236C46.6221 65.3277 46.492 65.2905 46.3908 65.2121C46.2917 65.1336 46.238 65.0283 46.2297 64.8982L46.3949 64.8878Z" fill="black"/>
<path d="M49.2262 64.8773C49.3666 64.8587 49.4781 64.8773 49.5628 64.931C49.6475 64.9847 49.697 65.0672 49.7115 65.1746C49.7301 65.313 49.6826 65.4286 49.5711 65.5216C49.4595 65.6145 49.3026 65.6744 49.1023 65.7012C48.9061 65.726 48.7492 65.7115 48.6315 65.6558C48.5137 65.6 48.4477 65.5092 48.4311 65.3873C48.4146 65.2531 48.4683 65.1519 48.5922 65.0817C48.4993 65.0528 48.4477 64.9908 48.4353 64.8897C48.427 64.8277 48.4394 64.772 48.4725 64.7203C48.5055 64.6708 48.5468 64.6336 48.6005 64.6088C48.4497 64.5365 48.363 64.4126 48.3403 64.235C48.3217 64.0884 48.3568 63.9624 48.4435 63.8551C48.5323 63.7477 48.6583 63.6837 48.8235 63.6609C48.9784 63.6403 49.1002 63.663 49.189 63.727C49.2076 63.6052 49.2758 63.537 49.3976 63.5205C49.4265 63.5164 49.4534 63.5164 49.4761 63.5184L49.4967 63.6816C49.4823 63.6795 49.4678 63.6795 49.4554 63.6816C49.3501 63.696 49.2778 63.727 49.2386 63.7745C49.3377 63.8509 49.3955 63.9583 49.4141 64.0967C49.4327 64.2392 49.3976 64.361 49.3067 64.4663C49.2179 64.5696 49.094 64.6315 48.9391 64.6522C48.8731 64.6604 48.8049 64.6604 48.7409 64.6522C48.6913 64.6584 48.6542 64.6769 48.6294 64.7059C48.6046 64.7348 48.5964 64.7699 48.6005 64.8112C48.6129 64.9082 48.6893 64.9475 48.8297 64.9289L49.2262 64.8773ZM48.8338 63.7972C48.7161 63.8117 48.6273 63.8571 48.5674 63.9335C48.5076 64.0099 48.4848 64.1049 48.4993 64.2185C48.5137 64.3259 48.5571 64.4064 48.6315 64.4622C48.7058 64.518 48.8008 64.5386 48.9144 64.5241C49.0321 64.5097 49.1188 64.4643 49.1766 64.3879C49.2345 64.3135 49.2572 64.2185 49.2427 64.107C49.2283 63.9975 49.1849 63.9149 49.1126 63.8592C49.0403 63.8034 48.9474 63.7828 48.8338 63.7972ZM49.0796 65.5443C49.2406 65.5236 49.3604 65.4823 49.4368 65.4245C49.5132 65.3646 49.5463 65.2944 49.536 65.2097C49.5318 65.1767 49.5236 65.1478 49.5091 65.1251C49.4946 65.1024 49.4761 65.0838 49.4534 65.0734C49.4286 65.0611 49.4059 65.0528 49.3852 65.0466C49.3646 65.0404 49.3356 65.0383 49.3005 65.0383C49.2654 65.0383 49.2386 65.0404 49.2179 65.0425C49.1973 65.0445 49.1684 65.0466 49.1312 65.0528L48.7884 65.0982C48.7058 65.1085 48.648 65.1375 48.6191 65.185C48.5902 65.2325 48.5798 65.2862 48.586 65.344C48.6087 65.5174 48.7739 65.5835 49.0796 65.5443Z" fill="black"/>
<path d="M50.5871 64.7225C50.6883 64.7019 50.7688 64.6606 50.8266 64.5986C50.8845 64.5367 50.9154 64.4603 50.9175 64.3715L51.093 64.3364C51.091 64.4768 51.0476 64.5945 50.9609 64.6895C50.8741 64.7845 50.7626 64.8444 50.6222 64.8733C50.4281 64.9125 50.2629 64.8795 50.1245 64.77C49.9862 64.6606 49.8953 64.4933 49.8499 64.2661C49.8024 64.0369 49.823 63.8469 49.9098 63.6962C49.9965 63.5454 50.1307 63.4504 50.3145 63.4133C50.49 63.3782 50.6408 63.405 50.7668 63.4979C50.8927 63.5888 50.9753 63.7292 51.0146 63.9151C51.0208 63.9481 51.029 63.9997 51.0352 64.0658L50.0275 64.2723C50.0667 64.452 50.1348 64.578 50.2319 64.6544C50.329 64.7266 50.4487 64.7494 50.5871 64.7225ZM50.3352 63.5702C50.2051 63.5971 50.1121 63.659 50.0543 63.754C49.9965 63.8511 49.9779 63.9708 49.9965 64.1154L50.8411 63.9419L50.839 63.9337C50.8081 63.785 50.7482 63.6817 50.6573 63.6218C50.5685 63.562 50.4591 63.5454 50.3352 63.5702Z" fill="black"/>
<path d="M52.1234 64.5059C51.89 64.5679 51.7372 64.4688 51.667 64.2044L51.4336 63.3371L51.1342 63.4176L51.095 63.271L51.2271 63.2359C51.2932 63.2194 51.3345 63.1925 51.351 63.1616C51.3676 63.1285 51.3676 63.0831 51.351 63.0212L51.285 62.7713L51.4378 62.73L51.5493 63.1492L51.8962 63.0563L51.9355 63.2029L51.5885 63.2958L51.8177 64.1507C51.8446 64.254 51.8838 64.3201 51.9334 64.3469C51.9829 64.3738 52.0449 64.3758 52.1234 64.3552C52.1626 64.3449 52.1998 64.3304 52.2349 64.3139L52.27 64.4419C52.2246 64.4708 52.175 64.4935 52.1234 64.5059Z" fill="black"/>
<path d="M53.984 63.6463C54.1162 63.5967 54.2297 63.5906 54.3227 63.6236C54.4177 63.6566 54.4838 63.7248 54.5209 63.828C54.5705 63.9602 54.5498 64.082 54.461 64.1977C54.3722 64.3133 54.2339 64.4063 54.0439 64.4765C53.858 64.5446 53.7011 64.5653 53.5731 64.5364C53.445 64.5075 53.3604 64.4352 53.317 64.3195C53.2695 64.1936 53.3005 64.082 53.4058 63.9871C53.3087 63.9809 53.2447 63.9292 53.2096 63.8363C53.1869 63.7785 53.1869 63.7207 53.2075 63.6628C53.2282 63.6071 53.2612 63.5617 53.3067 63.5265C53.1435 63.4914 53.0299 63.3882 52.9701 63.2209C52.9184 63.0826 52.9246 62.9525 52.9866 62.8265C53.0485 62.7026 53.158 62.6117 53.3129 62.5539C53.4595 62.5002 53.5834 62.494 53.6846 62.5374C53.6742 62.4135 53.7279 62.3309 53.8415 62.2896C53.8704 62.2792 53.8952 62.2731 53.9179 62.271L53.9757 62.4259C53.9613 62.4279 53.9468 62.43 53.9344 62.4341C53.8353 62.4713 53.7713 62.5167 53.7424 62.5746C53.856 62.6262 53.9365 62.7191 53.984 62.8492C54.0336 62.9834 54.0274 63.1115 53.9634 63.2333C53.8993 63.3551 53.794 63.4419 53.6453 63.4976C53.5813 63.5203 53.5173 63.5369 53.4512 63.5431C53.4037 63.5596 53.3727 63.5864 53.3542 63.6195C53.3376 63.6525 53.3356 63.6897 53.35 63.7269C53.3831 63.8177 53.4677 63.8404 53.5999 63.7909L53.984 63.6463ZM53.3583 62.6799C53.2468 62.7212 53.1704 62.7852 53.1291 62.8719C53.0878 62.9586 53.0857 63.0557 53.127 63.1652C53.1642 63.2663 53.2261 63.3345 53.3108 63.3737C53.3955 63.4109 53.4925 63.4109 53.5999 63.3696C53.7114 63.3283 53.7858 63.2643 53.825 63.1775C53.8642 63.0908 53.8642 62.9958 53.825 62.8905C53.7878 62.7873 53.7259 62.717 53.6433 62.6778C53.5607 62.6406 53.4657 62.6406 53.3583 62.6799ZM53.9902 64.3278C54.143 64.272 54.2504 64.206 54.3123 64.1316C54.3743 64.0573 54.3908 63.9788 54.3598 63.9003C54.3475 63.8693 54.333 63.8425 54.3144 63.8239C54.2958 63.8053 54.2731 63.7909 54.2483 63.7847C54.2215 63.7785 54.1988 63.7743 54.1761 63.7743C54.1533 63.7743 54.1265 63.7764 54.0914 63.7867C54.0583 63.795 54.0315 63.8033 54.0108 63.8095C53.9923 63.8157 53.9634 63.826 53.9283 63.8384L53.604 63.9581C53.5256 63.987 53.476 64.0284 53.4595 64.08C53.4409 64.1316 53.443 64.1874 53.4636 64.241C53.5235 64.4063 53.699 64.4352 53.9902 64.3278Z" fill="black"/>
<path d="M54.7647 61.9798C54.7812 61.9716 54.8101 61.9612 54.8535 61.9468L54.9154 62.0851C54.8927 62.0913 54.8659 62.0996 54.837 62.1141C54.6181 62.2111 54.5644 62.3866 54.6759 62.6427L55.027 63.4398L54.8783 63.5059L54.3 62.1925L54.4281 62.1368L54.5355 62.3164C54.5293 62.2421 54.5479 62.176 54.5912 62.1182C54.6325 62.0583 54.6903 62.0129 54.7647 61.9798Z" fill="black"/>
<path d="M55.349 62.519C55.2457 62.3187 55.2127 62.1328 55.2499 61.9573C55.285 61.7838 55.3882 61.6517 55.5576 61.5649C55.729 61.4761 55.8962 61.4699 56.0594 61.5422C56.2225 61.6145 56.3547 61.7508 56.4559 61.9511C56.5612 62.1555 56.5922 62.3434 56.5488 62.5128C56.5054 62.6821 56.4022 62.8102 56.239 62.8928C56.078 62.9754 55.9148 62.9857 55.7517 62.9217C55.5885 62.8576 55.4543 62.7234 55.349 62.519ZM55.4977 62.4364C55.5803 62.5974 55.6835 62.7069 55.8074 62.7606C55.9313 62.8143 56.0511 62.8143 56.1647 62.7544C56.2803 62.6945 56.3526 62.5995 56.3815 62.4653C56.4104 62.3331 56.3815 62.1844 56.2989 62.0213C56.2184 61.8623 56.1172 61.7549 55.9974 61.6992C55.8776 61.6434 55.7558 61.6454 55.634 61.7074C55.5163 61.7673 55.4419 61.8623 55.4151 61.9924C55.3841 62.1225 55.413 62.2712 55.4977 62.4364Z" fill="black"/>
<path d="M57.8996 60.2208L58.0607 60.1196L58.4695 61.561L58.2734 61.6849C57.8376 61.3008 57.5237 61.0179 57.3317 60.8383C57.3936 61.0117 57.5196 61.4124 57.7117 62.0401L57.501 62.1744L56.3652 61.1935L56.5346 61.0861C56.708 61.241 56.8588 61.3752 56.9868 61.4888C57.1128 61.6023 57.2243 61.7015 57.3193 61.7861C57.4143 61.8708 57.4804 61.9307 57.5196 61.9637C57.5052 61.9245 57.4845 61.8564 57.4556 61.7531C57.4267 61.6519 57.3812 61.5032 57.3214 61.307C57.2615 61.1109 57.1995 60.9105 57.1376 60.704L57.3028 60.5987C57.565 60.8341 57.8934 61.1253 58.2899 61.4723C58.2816 61.4495 58.2651 61.3938 58.2382 61.3029C58.2114 61.212 58.168 61.0716 58.1102 60.8796C58.0462 60.6917 57.978 60.4707 57.8996 60.2208Z" fill="black"/>
<path d="M58.1164 59.5351L58.0049 59.3843L58.1887 59.248L58.3002 59.3988L58.1164 59.5351ZM59.246 61.0054L58.3931 59.851L58.5253 59.754L59.3782 60.9083L59.246 61.0054Z" fill="black"/>
<path d="M59.8923 60.522L58.9734 59.4193L59.0787 59.3305L59.2873 59.539C59.2542 59.442 59.2522 59.3429 59.2831 59.2376C59.3141 59.1343 59.374 59.0455 59.4628 58.9712C59.5888 58.8679 59.7148 58.8266 59.8428 58.8493C59.9708 58.872 60.0865 58.9464 60.1918 59.0724L60.7824 59.7807L60.6544 59.886L60.0968 59.2169C60.072 59.188 60.0534 59.1653 60.041 59.1508C60.0286 59.1364 59.9997 59.1136 59.9584 59.0827C59.9171 59.0517 59.8779 59.031 59.8407 59.0228C59.8035 59.0145 59.7581 59.0145 59.7044 59.029C59.6507 59.0414 59.595 59.0703 59.5413 59.1157C59.4298 59.2086 59.3719 59.3181 59.3699 59.4441C59.3678 59.57 59.4112 59.6836 59.4958 59.7869L60.0204 60.4167L59.8923 60.522Z" fill="black"/>
<path d="M61.6312 58.6949C61.7323 58.5957 61.8335 58.5441 61.9327 58.5359C62.0318 58.5276 62.1206 58.5648 62.197 58.6432C62.294 58.7444 62.3271 58.8642 62.292 59.0046C62.2589 59.145 62.1681 59.2875 62.0235 59.428C61.881 59.5663 61.7468 59.6489 61.6188 59.6737C61.4907 59.6985 61.3834 59.6675 61.2966 59.5787C61.2016 59.4817 61.1851 59.3681 61.2429 59.238C61.1521 59.271 61.0715 59.2504 61.0013 59.1801C60.958 59.1347 60.9332 59.0831 60.929 59.0232C60.9249 58.9633 60.9373 58.9076 60.9641 58.858C60.801 58.8911 60.6564 58.8435 60.5325 58.7134C60.4293 58.6081 60.3818 58.4863 60.388 58.3479C60.3942 58.2096 60.4561 58.0815 60.5759 57.9659C60.6874 57.8564 60.7989 57.8028 60.9084 57.8007C60.8506 57.6913 60.865 57.5942 60.9518 57.5095C60.9724 57.4889 60.9931 57.4724 61.0137 57.46L61.1273 57.5777C61.1149 57.5859 61.1025 57.5942 61.0942 57.6024C61.0178 57.6768 60.9786 57.745 60.9765 57.8069C61.1004 57.809 61.212 57.8606 61.309 57.9597C61.4081 58.063 61.4536 58.1827 61.4453 58.319C61.437 58.4553 61.3751 58.5792 61.2615 58.6887C61.212 58.7362 61.1603 58.7754 61.1025 58.8085C61.0674 58.8436 61.0467 58.8807 61.0447 58.9179C61.0426 58.9551 61.055 58.9881 61.0839 59.0191C61.1521 59.0893 61.2367 59.0748 61.3379 58.9757L61.6312 58.6949ZM60.6688 58.065C60.5842 58.1476 60.5408 58.2364 60.5367 58.3335C60.5325 58.4305 60.5718 58.5193 60.6523 58.6019C60.7267 58.6784 60.8113 58.7176 60.9043 58.7176C60.9972 58.7176 61.086 58.6783 61.1665 58.5978C61.2512 58.5152 61.2946 58.4264 61.2946 58.3314C61.2966 58.2364 61.2574 58.1476 61.1789 58.0671C61.1025 57.9886 61.0178 57.9494 60.927 57.9473C60.8382 57.9452 60.7514 57.9845 60.6688 58.065ZM61.9141 59.3165C62.0318 59.2029 62.102 59.0996 62.1288 59.0067C62.1557 58.9138 62.1392 58.8374 62.0793 58.7754C62.0566 58.7506 62.0318 58.7341 62.007 58.7238C61.9822 58.7135 61.9574 58.7114 61.9306 58.7155C61.9037 58.7196 61.881 58.7259 61.8583 58.7341C61.8377 58.7424 61.8129 58.7568 61.786 58.7795C61.7592 58.8002 61.7365 58.8188 61.722 58.8332C61.7076 58.8477 61.6849 58.8663 61.658 58.8931L61.4102 59.1347C61.3503 59.1925 61.3214 59.2504 61.3276 59.3061C61.3338 59.3619 61.3565 59.4094 61.3978 59.4528C61.5196 59.5767 61.691 59.5312 61.9141 59.3165Z" fill="black"/>
</svg>
